<mxfile host="65bd71144e">
    <diagram id="tWyQbTRA_mAzRgbDlhfs" name="페이지-1">
        <mxGraphModel dx="1118" dy="790" grid="1" gridSize="10" guides="1" tooltips="1" connect="1" arrows="1" fold="1" page="1" pageScale="1" pageWidth="1169" pageHeight="827" background="#FFFFFF" math="0" shadow="0">
            <root>
                <mxCell id="0"/>
                <mxCell id="1" parent="0"/>
                <mxCell id="cHdvYVvglHEXpssZ8IBm-7" style="edgeStyle=orthogonalEdgeStyle;rounded=0;orthogonalLoop=1;jettySize=auto;html=1;exitX=1;exitY=0.25;exitDx=0;exitDy=0;entryX=0;entryY=0.25;entryDx=0;entryDy=0;strokeColor=#000000;fontColor=#000000;" parent="1" source="cHdvYVvglHEXpssZ8IBm-1" target="cHdvYVvglHEXpssZ8IBm-3" edge="1">
                    <mxGeometry relative="1" as="geometry"/>
                </mxCell>
                <mxCell id="cHdvYVvglHEXpssZ8IBm-9" style="edgeStyle=orthogonalEdgeStyle;rounded=0;orthogonalLoop=1;jettySize=auto;html=1;exitX=0.25;exitY=1;exitDx=0;exitDy=0;entryX=0;entryY=0.75;entryDx=0;entryDy=0;strokeColor=#000000;fontColor=#000000;" parent="1" source="cHdvYVvglHEXpssZ8IBm-1" target="cHdvYVvglHEXpssZ8IBm-4" edge="1">
                    <mxGeometry relative="1" as="geometry"/>
                </mxCell>
                <mxCell id="cHdvYVvglHEXpssZ8IBm-19" style="edgeStyle=orthogonalEdgeStyle;rounded=0;orthogonalLoop=1;jettySize=auto;html=1;exitX=0.5;exitY=0;exitDx=0;exitDy=0;entryX=0;entryY=0.75;entryDx=0;entryDy=0;strokeColor=#000000;fontColor=#000000;" parent="1" source="cHdvYVvglHEXpssZ8IBm-1" target="cHdvYVvglHEXpssZ8IBm-18" edge="1">
                    <mxGeometry relative="1" as="geometry">
                        <Array as="points">
                            <mxPoint x="345" y="240"/>
                            <mxPoint x="140" y="240"/>
                            <mxPoint x="140" y="605"/>
                        </Array>
                    </mxGeometry>
                </mxCell>
                <mxCell id="cHdvYVvglHEXpssZ8IBm-1" value="&lt;font style=&quot;font-size: 18px&quot;&gt;STOPWATCH&lt;br&gt;STOP&lt;br&gt;&lt;/font&gt;" style="rounded=0;whiteSpace=wrap;html=1;strokeColor=#000000;fontColor=#000000;" parent="1" vertex="1">
                    <mxGeometry x="270" y="260" width="150" height="90" as="geometry"/>
                </mxCell>
                <mxCell id="cHdvYVvglHEXpssZ8IBm-8" style="edgeStyle=orthogonalEdgeStyle;rounded=0;orthogonalLoop=1;jettySize=auto;html=1;exitX=0;exitY=0.75;exitDx=0;exitDy=0;entryX=1;entryY=0.75;entryDx=0;entryDy=0;strokeColor=#000000;fontColor=#000000;" parent="1" source="cHdvYVvglHEXpssZ8IBm-3" target="cHdvYVvglHEXpssZ8IBm-1" edge="1">
                    <mxGeometry relative="1" as="geometry"/>
                </mxCell>
                <mxCell id="cHdvYVvglHEXpssZ8IBm-21" style="edgeStyle=orthogonalEdgeStyle;rounded=0;orthogonalLoop=1;jettySize=auto;html=1;exitX=0.5;exitY=1;exitDx=0;exitDy=0;entryX=0.5;entryY=0;entryDx=0;entryDy=0;strokeColor=#000000;fontColor=#000000;" parent="1" source="cHdvYVvglHEXpssZ8IBm-3" target="cHdvYVvglHEXpssZ8IBm-18" edge="1">
                    <mxGeometry relative="1" as="geometry"/>
                </mxCell>
                <mxCell id="cHdvYVvglHEXpssZ8IBm-3" value="&lt;font style=&quot;font-size: 18px&quot;&gt;STOPWATCH&lt;br&gt;START&lt;/font&gt;" style="rounded=0;whiteSpace=wrap;html=1;strokeColor=#000000;fontColor=#000000;fillColor=#FFFFFF;" parent="1" vertex="1">
                    <mxGeometry x="670" y="260" width="150" height="90" as="geometry"/>
                </mxCell>
                <mxCell id="cHdvYVvglHEXpssZ8IBm-10" style="edgeStyle=orthogonalEdgeStyle;rounded=0;orthogonalLoop=1;jettySize=auto;html=1;exitX=0;exitY=0.25;exitDx=0;exitDy=0;entryX=0.75;entryY=1;entryDx=0;entryDy=0;strokeColor=#000000;fontColor=#000000;" parent="1" source="cHdvYVvglHEXpssZ8IBm-4" target="cHdvYVvglHEXpssZ8IBm-1" edge="1">
                    <mxGeometry relative="1" as="geometry"/>
                </mxCell>
                <mxCell id="cHdvYVvglHEXpssZ8IBm-20" style="edgeStyle=orthogonalEdgeStyle;rounded=0;orthogonalLoop=1;jettySize=auto;html=1;entryX=0;entryY=0.5;entryDx=0;entryDy=0;strokeColor=#000000;fontColor=#000000;" parent="1" source="cHdvYVvglHEXpssZ8IBm-4" target="cHdvYVvglHEXpssZ8IBm-18" edge="1">
                    <mxGeometry relative="1" as="geometry"/>
                </mxCell>
                <mxCell id="cHdvYVvglHEXpssZ8IBm-4" value="&lt;font style=&quot;font-size: 18px&quot;&gt;STOPWARCH&lt;br&gt;RESET&lt;/font&gt;" style="rounded=0;whiteSpace=wrap;html=1;strokeColor=#000000;fontColor=#000000;" parent="1" vertex="1">
                    <mxGeometry x="470" y="470" width="150" height="90" as="geometry"/>
                </mxCell>
                <mxCell id="cHdvYVvglHEXpssZ8IBm-11" value="stopstartButton" style="text;html=1;strokeColor=none;fillColor=none;align=center;verticalAlign=middle;whiteSpace=wrap;rounded=0;fontColor=#000000;" parent="1" vertex="1">
                    <mxGeometry x="500" y="260" width="115" height="20" as="geometry"/>
                </mxCell>
                <mxCell id="cHdvYVvglHEXpssZ8IBm-12" value="stopstartButton" style="text;html=1;strokeColor=none;fillColor=none;align=center;verticalAlign=middle;whiteSpace=wrap;rounded=0;fontColor=#000000;" parent="1" vertex="1">
                    <mxGeometry x="500" y="330" width="115" height="20" as="geometry"/>
                </mxCell>
                <mxCell id="cHdvYVvglHEXpssZ8IBm-13" value="resetButton" style="text;html=1;strokeColor=none;fillColor=none;align=center;verticalAlign=middle;whiteSpace=wrap;rounded=0;fontColor=#000000;" parent="1" vertex="1">
                    <mxGeometry x="380" y="420" width="80" height="26" as="geometry"/>
                </mxCell>
                <mxCell id="cHdvYVvglHEXpssZ8IBm-14" value="resetButton" style="text;html=1;strokeColor=none;fillColor=none;align=center;verticalAlign=middle;whiteSpace=wrap;rounded=0;fontColor=#000000;" parent="1" vertex="1">
                    <mxGeometry x="230" y="444" width="80" height="26" as="geometry"/>
                </mxCell>
                <mxCell id="cHdvYVvglHEXpssZ8IBm-15" value="" style="shape=flexArrow;endArrow=classic;html=1;width=26;endSize=8.68;strokeColor=#000000;fontColor=#000000;" parent="1" edge="1">
                    <mxGeometry width="50" height="50" relative="1" as="geometry">
                        <mxPoint x="180" y="304.71" as="sourcePoint"/>
                        <mxPoint x="260" y="305" as="targetPoint"/>
                    </mxGeometry>
                </mxCell>
                <mxCell id="cHdvYVvglHEXpssZ8IBm-17" value="Power On" style="text;html=1;strokeColor=none;fillColor=none;align=center;verticalAlign=middle;whiteSpace=wrap;rounded=0;fontColor=#000000;" parent="1" vertex="1">
                    <mxGeometry x="180" y="260" width="70" height="20" as="geometry"/>
                </mxCell>
                <mxCell id="cHdvYVvglHEXpssZ8IBm-26" style="edgeStyle=orthogonalEdgeStyle;rounded=0;orthogonalLoop=1;jettySize=auto;html=1;exitX=1;exitY=0.25;exitDx=0;exitDy=0;entryX=0.5;entryY=0;entryDx=0;entryDy=0;strokeColor=#000000;fontColor=#000000;" parent="1" source="cHdvYVvglHEXpssZ8IBm-18" target="cHdvYVvglHEXpssZ8IBm-25" edge="1">
                    <mxGeometry relative="1" as="geometry">
                        <Array as="points">
                            <mxPoint x="1010" y="515"/>
                        </Array>
                    </mxGeometry>
                </mxCell>
                <mxCell id="cHdvYVvglHEXpssZ8IBm-27" style="edgeStyle=orthogonalEdgeStyle;rounded=0;orthogonalLoop=1;jettySize=auto;html=1;entryX=0;entryY=0.5;entryDx=0;entryDy=0;strokeColor=#000000;fontColor=#000000;" parent="1" source="cHdvYVvglHEXpssZ8IBm-18" target="cHdvYVvglHEXpssZ8IBm-25" edge="1">
                    <mxGeometry relative="1" as="geometry"/>
                </mxCell>
                <mxCell id="cHdvYVvglHEXpssZ8IBm-18" value="&lt;font style=&quot;font-size: 30px&quot;&gt;BCD&lt;br&gt;TO&lt;br&gt;FND&lt;/font&gt;" style="rounded=0;whiteSpace=wrap;html=1;strokeColor=#000000;fontColor=#000000;" parent="1" vertex="1">
                    <mxGeometry x="740" y="470" width="130" height="180" as="geometry"/>
                </mxCell>
                <mxCell id="cHdvYVvglHEXpssZ8IBm-22" value="2bit Digitposition &lt;br&gt;&amp;amp; &lt;br&gt;4bit Value" style="text;html=1;strokeColor=none;fillColor=none;align=center;verticalAlign=middle;whiteSpace=wrap;rounded=0;fontColor=#000000;" parent="1" vertex="1">
                    <mxGeometry x="450" y="610" width="100" height="50" as="geometry"/>
                </mxCell>
                <mxCell id="cHdvYVvglHEXpssZ8IBm-23" value="2bit Digitposition &lt;br&gt;&amp;amp; &lt;br&gt;4bit Value" style="text;html=1;strokeColor=none;fillColor=none;align=center;verticalAlign=middle;whiteSpace=wrap;rounded=0;fontColor=#000000;" parent="1" vertex="1">
                    <mxGeometry x="630" y="460" width="100" height="50" as="geometry"/>
                </mxCell>
                <mxCell id="cHdvYVvglHEXpssZ8IBm-24" value="2bit Digitposition &lt;br&gt;&amp;amp; &lt;br&gt;4bit Value" style="text;html=1;strokeColor=none;fillColor=none;align=center;verticalAlign=middle;whiteSpace=wrap;rounded=0;fontColor=#000000;" parent="1" vertex="1">
                    <mxGeometry x="750" y="363" width="100" height="50" as="geometry"/>
                </mxCell>
                <mxCell id="cHdvYVvglHEXpssZ8IBm-25" value="&lt;font style=&quot;font-size: 18px&quot;&gt;FPGA FND&lt;/font&gt;" style="rounded=0;whiteSpace=wrap;html=1;strokeColor=#000000;fontColor=#000000;fillColor=#FFFFFF;" parent="1" vertex="1">
                    <mxGeometry x="950" y="530" width="120" height="60" as="geometry"/>
                </mxCell>
                <mxCell id="cHdvYVvglHEXpssZ8IBm-28" value="4bit Digit" style="text;html=1;strokeColor=none;fillColor=none;align=center;verticalAlign=middle;whiteSpace=wrap;rounded=0;fontColor=#000000;" parent="1" vertex="1">
                    <mxGeometry x="900" y="496" width="80" height="20" as="geometry"/>
                </mxCell>
                <mxCell id="cHdvYVvglHEXpssZ8IBm-29" value="8bit Font" style="text;html=1;strokeColor=none;fillColor=none;align=center;verticalAlign=middle;whiteSpace=wrap;rounded=0;fontColor=#000000;" parent="1" vertex="1">
                    <mxGeometry x="890" y="560" width="40" height="30" as="geometry"/>
                </mxCell>
                <mxCell id="2" value="&lt;font style=&quot;font-size: 18px&quot;&gt;STOPWATCH&lt;br&gt;STOP&lt;br&gt;&lt;/font&gt;" style="rounded=0;whiteSpace=wrap;html=1;strokeColor=#000000;fontColor=#000000;fillColor=#FFFFFF;" vertex="1" parent="1">
                    <mxGeometry x="270" y="260" width="150" height="90" as="geometry"/>
                </mxCell>
                <mxCell id="3" value="&lt;font style=&quot;font-size: 18px&quot;&gt;STOPWARCH&lt;br&gt;RESET&lt;/font&gt;" style="rounded=0;whiteSpace=wrap;html=1;strokeColor=#000000;fontColor=#000000;fillColor=#FFFFFF;" vertex="1" parent="1">
                    <mxGeometry x="470" y="470" width="150" height="90" as="geometry"/>
                </mxCell>
                <mxCell id="4" value="&lt;font style=&quot;font-size: 30px&quot;&gt;BCD&lt;br&gt;TO&lt;br&gt;FND&lt;/font&gt;" style="rounded=0;whiteSpace=wrap;html=1;strokeColor=#000000;fontColor=#000000;fillColor=#FFFFFF;" vertex="1" parent="1">
                    <mxGeometry x="740" y="470" width="130" height="180" as="geometry"/>
                </mxCell>
            </root>
        </mxGraphModel>
    </diagram>
</mxfile>